<?xml version="1.0" standalone="no"?>
<!DOCTYPE svg PUBLIC "-//W3C//DTD SVG 20010904//EN"
 "http://www.w3.org/TR/2001/REC-SVG-20010904/DTD/svg10.dtd">
<svg version="1.0" xmlns="http://www.w3.org/2000/svg"
 width="505.000000pt" height="505.000000pt" viewBox="0 0 505.000000 505.000000"
 preserveAspectRatio="xMidYMid meet">
<metadata>
Created by potrace 1.14, written by Peter Selinger 2001-2017
</metadata>
<g transform="translate(0.000000,505.000000) scale(0.100000,-0.100000)"
fill="#000000" stroke="none">
<path d="M299 4721 c-133 -43 -236 -160 -269 -306 -9 -36 -12 -408 -12 -1320
0 -1152 1 -1276 16 -1335 29 -111 85 -191 179 -251 73 -47 141 -62 285 -61 61
0 112 -4 112 -9 0 -4 -9 -25 -19 -46 -11 -21 -50 -101 -86 -178 -155 -324
-147 -301 -117 -328 34 -31 -25 -55 962 383 189 84 246 109 328 146 l53 24
1094 0 1095 0 65 25 c103 38 157 83 219 180 69 107 66 30 66 1461 l0 1289 -24
68 c-39 110 -113 195 -214 244 l-57 28 -1810 2 c-1717 2 -1813 1 -1866 -16z
m3627 -283 c15 -7 37 -26 48 -41 l21 -28 3 -1267 c2 -1242 2 -1268 -17 -1299
-43 -69 51 -64 -1202 -66 l-1134 -2 -58 -28 c-47 -22 -425 -188 -655 -288
l-42 -18 18 37 c10 20 42 84 70 141 29 56 52 111 52 120 0 35 -29 39 -345 40
-340 2 -337 1 -375 64 -19 31 -20 61 -20 1290 0 1376 -4 1292 58 1335 15 11
43 22 62 24 19 2 812 2 1762 1 1411 -1 1732 -4 1754 -15z"/>
<path d="M2055 4055 c-151 -23 -253 -72 -351 -170 -70 -69 -110 -141 -128
-229 -30 -145 16 -216 141 -216 89 0 144 47 157 135 9 56 26 96 53 122 42 40
88 70 123 82 85 26 240 17 310 -19 94 -48 129 -165 85 -286 -15 -40 -61 -88
-231 -239 -156 -138 -246 -316 -241 -474 4 -111 36 -141 148 -141 112 0 146
37 159 170 5 49 12 96 17 104 13 23 128 147 276 297 147 149 181 202 195 304
15 122 -16 262 -79 349 -50 70 -142 136 -251 180 -94 37 -253 50 -383 31z"/>
<path d="M2110 2420 c-49 -9 -73 -24 -114 -72 -61 -71 -61 -151 1 -219 47 -52
81 -69 138 -69 54 0 89 16 131 62 38 41 57 86 50 124 -2 16 -5 37 -5 46 -1 20
-64 94 -94 110 -35 18 -71 24 -107 18z"/>
<path d="M4421 3527 c-11 -6 -21 -17 -22 -26 -4 -73 -1 -200 5 -218 9 -27 -2
-25 121 -27 55 -2 114 -6 131 -10 40 -9 90 -61 101 -106 5 -19 9 -466 8 -1000
l0 -965 -23 -36 c-44 -72 -51 -74 -300 -77 -276 -4 -263 4 -227 -152 14 -58
25 -108 25 -111 0 -7 -57 14 -380 140 -69 27 -166 65 -217 85 l-92 36 -567 0
c-562 1 -568 1 -606 22 -48 27 -78 86 -78 155 0 33 -5 55 -15 63 -20 17 -230
16 -251 -1 -19 -16 -18 -130 2 -200 22 -74 64 -146 116 -196 42 -41 137 -95
194 -110 16 -4 278 -9 583 -10 l554 -3 561 -240 c309 -132 572 -240 583 -240
27 0 53 25 48 48 -6 33 -106 387 -115 409 -11 27 -5 33 40 33 65 0 143 19 205
50 105 52 167 122 211 236 l27 69 2 1005 c1 755 -2 1017 -11 1052 -39 153
-162 278 -314 318 -56 15 -269 20 -299 7z"/>
</g>
</svg>
